<?xml version="1.0" encoding="UTF-8" standalone="no"?>
<svg xmlns:rdf="http://www.w3.org/1999/02/22-rdf-syntax-ns#" xmlns="http://www.w3.org/2000/svg" xml:space="preserve" height="184.41031" viewBox="0 0 187.38875 184.41031" width="187.38875" version="1.1" xmlns:cc="http://creativecommons.org/ns#" xmlns:dc="http://purl.org/dc/elements/1.1/"><g transform="matrix(1.25,0,0,-1.25,0,184.41031)"><g transform="scale(.1)"><path d="m1412.37 1157.43h11.69v53.32c0 2.17-0.11 5.52-0.21 10.01-0.16 4.58-0.16 7.96-0.16 10.19v2.72l26.07-76.24h12.1l25.83 76.24c0-4.86-0.06-9.44-0.18-13.78-0.06-4.22-0.1-7.27-0.1-9.14v-53.32h11.7v90.37h-17.42l-25.82-76.39-25.97 76.39h-17.53v-90.37zm-84.22 90.37v-10.76h30.44v-79.61h12.32v79.61h30.54v10.76h-73.3zm-237.6-632.706c0 116.773-78.92 147.879-245.07 169.836-167.882 22.218-184.949 33.672-184.949 72.996 0 32.453 14.457 75.773 138.801 75.773 111.074 0 152.004-23.926 168.836-98.808 1.48-7.043 7.902-12.203 15.184-12.203h70.158c4.36 0 8.49 1.878 11.44 4.984 2.96 3.316 4.54 7.578 4.13 12.027-10.86 128.977-96.553 189.071-269.748 189.071-154.156 0-246.086-65.04-246.086-174.125 0-118.34 91.484-151.016 239.41-165.653 176.992-17.32 190.731-43.187 190.731-78.023 0-60.434-48.481-86.199-162.371-86.199-143.071 0-174.536 35.925-185.082 107.082-1.207 7.628-7.719 13.234-15.532 13.234h-69.898c-8.66 0-15.621-6.91-15.621-15.57 0-91.086 49.562-199.684 286.133-199.684 171.304 0 269.534 67.477 269.534 185.262zm-436.527-615.094c-19.753 0-39.414 5.16016-56.695 15.1719l-180.512 106.8081c-26.937 15.079-13.781 20.411-4.894 23.508 35.965 12.473 43.234 15.352 81.613 37.133 4 2.238 9.293 1.379 13.418-1.031l138.672-82.3517c5.031-2.7774 12.125-2.7774 16.746 0l540.629 312.0427c5.02 2.879 8.25 8.68 8.25 14.641v623.908c0 6.12-3.23 11.81-8.38 14.91l-540.409 311.77c-4.984 2.92-11.621 2.92-16.652 0l-540.27-311.87c-5.25-3-8.5742-8.88-8.5742-14.81v-623.908c0-5.961 3.3242-11.621 8.5312-14.442l148.098-85.582c80.351-40.168 129.551 7.141 129.551 54.692v616.004c0 8.706 7.007 15.576 15.714 15.576h68.547c8.574 0 15.668-6.87 15.668-15.576v-616.004c0-107.258-58.406-168.758-160.078-168.758-31.246 0-55.848 0-124.527 33.848l-141.7698 81.621c-35.0195 20.238-56.6992 58.097-56.6992 98.621v623.908c0 40.55 21.6797 78.39 56.6992 98.54l540.6288 312.4c34.203 19.35 79.684 19.35 113.625 0l540.567-312.4c35.03-20.25 56.79-57.99 56.79-98.54v-623.908c0-40.524-21.76-78.242-56.79-98.621l-540.567-312.1291c-17.281-10.01174-36.898-15.1719-56.93-15.1719" fill="#100f0d"/></g></g></svg>
